<svg width="176" height="29" viewBox="0 0 176 29" fill="none" xmlns="http://www.w3.org/2000/svg">
<g clip-path="url(#clip0_2_969)">
<path d="M20.5091 0.776128C14.8441 0.773195 8.93347 2.04919 2.9678 3.70433C2.21027 3.85686 1.47107 4.35259 1.0802 4.96566C0.720871 5.54353 0.590338 6.12359 0.478138 6.73153C-0.101196 9.97873 -0.0307958 13.1673 0.0894709 16.7005C0.115871 17.5093 0.236138 18.4678 0.613804 19.0508C1.00834 19.6397 1.68447 20.0137 2.49187 20.1361C3.52338 20.2874 4.55813 20.4158 5.59534 20.5211L5.36654 26.8997C5.33134 27.4071 5.57921 27.8288 5.88721 28.0715C6.16294 28.2813 6.47021 28.3744 6.78554 28.3979C7.41621 28.4455 8.15614 28.1757 8.52354 27.4761C10.1332 24.3785 11.143 23.0108 13.156 20.9531C18.4052 21.0821 22.9878 20.7903 28.1761 20.4067C30.0102 20.3591 31.2693 18.8594 31.6023 17.6619C32.5974 14.5584 32.7521 10.7275 32.8577 6.85473C32.9025 5.31986 32.3701 3.81286 31.4277 3.01646C30.5316 2.28973 29.4463 2.02646 28.4519 1.75659C25.6894 1.13106 22.9262 0.795195 20.5091 0.776128ZM28.0551 3.20346C29.051 3.47406 29.9288 3.73439 30.4825 4.18393C31.4065 5.16586 31.3757 5.81926 31.3625 6.87893C31.2583 10.6351 31.0779 14.2805 30.2302 17.0429C29.865 18.0733 29.2285 18.8066 28.0258 18.9173C22.7399 19.3082 18.1537 19.6103 12.8407 19.4593C12.7372 19.4559 12.6342 19.4739 12.5379 19.512C12.4417 19.5501 12.3543 19.6075 12.2811 19.6807C10.0489 21.935 8.90707 23.5014 7.20574 26.7765C7.16614 26.8513 7.08034 26.8967 6.97474 26.9048C6.9036 26.9011 6.87501 26.8461 6.87061 26.7963L7.10087 19.8795C7.11481 19.5062 6.80681 19.1498 6.43574 19.1095C5.19502 18.991 3.95769 18.8393 2.72507 18.6548C2.19267 18.5734 1.99614 18.4275 1.8502 18.2104C1.59647 17.6054 1.60234 17.2314 1.58254 16.6499C1.46374 13.1482 1.40507 10.088 1.9426 7.04319C1.99247 6.59293 2.16114 6.13239 2.34007 5.74739C2.63634 5.28393 3.09027 5.21573 3.54567 5.08959C9.38007 3.47846 15.0883 2.27359 20.4622 2.26993C23.0963 2.36526 25.8625 2.62926 28.0551 3.20346ZM7.90387 9.13613C7.10014 10.099 7.18007 11.4065 7.80121 12.2821C8.12534 12.7405 8.63134 13.1093 9.24734 13.1929C10.0474 13.2589 10.5549 12.9348 11.1027 12.5623C12.0949 11.6999 12.1953 10.1951 11.4407 9.10826C11.0565 8.55459 10.4419 8.22239 9.81421 8.19893C8.95474 8.20773 8.37101 8.59126 7.90387 9.13539V9.13613ZM16.5983 8.34999C15.7975 8.37566 15.1499 8.93006 14.7547 9.52846C14.3022 10.2127 14.0382 11.0692 14.4041 11.9089C15.1081 13.5244 17.5406 13.5046 18.5108 11.8627C18.9581 11.1059 18.8437 10.2457 18.5108 9.62159C18.1793 8.99826 17.6777 8.49006 16.9481 8.37346C16.8325 8.35446 16.7154 8.3466 16.5983 8.34999ZM23.6566 8.50179C23.4073 8.49593 23.1506 8.51939 22.9101 8.58319C21.9479 8.83986 21.1288 9.83279 21.2527 11.1037C21.3158 11.7431 21.6099 12.3665 22.1401 12.7962C22.6703 13.2252 23.4403 13.4173 24.2521 13.2509C25.1849 13.0602 25.7627 12.3085 25.9556 11.5825C26.1485 10.8565 26.1001 10.1166 25.652 9.51673C25.4189 9.20672 25.118 8.95411 24.7722 8.7782C24.4265 8.6023 24.0452 8.50775 23.6573 8.50179H23.6566ZM9.74894 9.69199C9.92861 9.69346 10.0701 9.75066 10.2161 9.96039C10.5424 10.4312 10.4515 11.1447 10.1222 11.4307C9.79441 11.7167 9.58981 11.7417 9.44607 11.7226C9.30234 11.7028 9.15641 11.6038 9.02587 11.419C8.77654 11.067 8.70321 10.4979 9.031 10.0917C9.20554 9.85993 9.52601 9.71546 9.74967 9.69199H9.74894ZM16.7031 9.85553C16.731 9.85993 17.0434 10.0411 17.193 10.3219C17.3426 10.6028 17.3705 10.8639 17.2282 11.1037C16.8051 11.8194 15.9053 11.6258 15.7689 11.3141C15.7175 11.1953 15.7564 10.7179 16.0035 10.3461C16.2492 9.97286 16.5587 9.83279 16.7031 9.85479V9.85553ZM24.4501 10.4041C24.4955 10.4649 24.6063 10.8734 24.5205 11.1975C24.4339 11.5217 24.2931 11.7219 23.9485 11.7923C23.507 11.8832 23.2591 11.7923 23.0736 11.6405C22.8873 11.4901 22.7619 11.2357 22.7348 10.9636C22.6688 10.2889 22.9108 10.1327 23.2951 10.0301C23.7424 9.92006 24.2484 10.1122 24.4501 10.4041Z" fill="#FEFEFE"/>
<path d="M42.2473 3.79511C42.259 3.60444 42.3287 3.43284 42.4578 3.28104C42.5206 3.20662 42.5995 3.14748 42.6886 3.10809C42.7777 3.0687 42.8745 3.05011 42.9718 3.05371H47.9776C48.1462 3.05371 48.32 3.12411 48.4997 3.26417C48.5839 3.32462 48.6524 3.40438 48.6993 3.49677C48.7463 3.58916 48.7704 3.69147 48.7696 3.79511V11.7833H57.145V3.79511C57.145 3.59271 57.2154 3.41891 57.3554 3.27297C57.4962 3.12631 57.6781 3.05297 57.9032 3.05297H62.8415C63.0659 3.05297 63.2624 3.10944 63.4311 3.22164C63.5998 3.33457 63.6841 3.51424 63.6841 3.76137V27.338C63.6841 27.5852 63.6108 27.7707 63.4641 27.8939C63.3189 28.0178 63.1275 28.0794 62.8921 28.0794H57.9032C57.6788 28.0794 57.4962 28.0178 57.3554 27.8939C57.2154 27.7707 57.145 27.5859 57.145 27.338V17.7658H48.7696V27.338C48.7696 27.5742 48.6933 27.756 48.5422 27.8858C48.3904 28.0149 48.1851 28.0794 47.9262 28.0794H42.9718C42.5003 28.0794 42.259 27.8602 42.2473 27.4224V3.79511ZM88.3556 27.7934C88.2097 27.9166 88.055 27.9951 87.8922 28.0288C87.7401 28.0616 87.585 28.0788 87.4294 28.0802H84.8848C84.6824 28.0802 84.5078 28.0435 84.3619 27.9702C84.2152 27.8968 84.092 27.7986 83.9908 27.6754C83.8873 27.5474 83.8024 27.4054 83.7386 27.2537C83.6707 27.0952 83.6143 26.932 83.5699 26.7653L83.0478 24.6078C82.8791 24.9562 82.6349 25.3522 82.3144 25.7958C81.9677 26.2667 81.5564 26.6863 81.0927 27.0425C80.5984 27.4312 80.0081 27.7568 79.3232 28.0208C78.6375 28.2848 77.8514 28.4168 76.9633 28.4168C75.6829 28.4168 74.5198 28.1696 73.4748 27.6754C72.4518 27.1974 71.5415 26.508 70.804 25.6528C70.0685 24.7992 69.498 23.8019 69.0939 22.6608C68.6891 21.5212 68.4867 20.3046 68.4867 19.0132V7.97437C68.4867 7.54757 68.5798 7.22491 68.7654 7.00564C68.9502 6.78637 69.245 6.67711 69.6498 6.67711H73.5423C74.0263 6.67711 74.357 6.75777 74.5367 6.92131C74.7164 7.08411 74.8066 7.40164 74.8066 7.87317V18.8438C74.8066 19.3278 74.9166 19.7854 75.1351 20.2181C75.3544 20.6508 75.6433 21.0321 76.0034 21.3636C76.3627 21.695 76.7697 21.9568 77.2251 22.1475C77.6798 22.3382 78.1432 22.4335 78.6155 22.4335C79.0196 22.4335 79.4383 22.3382 79.871 22.1475C80.3065 21.9544 80.7099 21.6957 81.067 21.3804C81.4322 21.0607 81.7329 20.6838 81.969 20.2511C82.2052 19.8184 82.3225 19.3608 82.3225 18.8783V7.92377C82.3225 7.73311 82.3592 7.54244 82.4325 7.35104C82.5058 7.16037 82.6151 7.01371 82.761 6.91251C82.907 6.82304 83.0448 6.76144 83.1739 6.72771C83.303 6.69397 83.4526 6.67637 83.6205 6.67637H87.4294C87.912 6.67637 88.2603 6.79517 88.4737 7.03057C88.6871 7.26671 88.7942 7.58131 88.7942 7.97437V26.8328C88.7942 27.0454 88.7465 27.2427 88.6512 27.4224C88.5558 27.602 88.4238 27.7428 88.2552 27.8433L88.3556 27.7934ZM107.922 25.4673C107.618 25.7709 107.284 26.0965 106.919 26.4448C106.554 26.7932 106.152 27.1195 105.714 27.4224C105.274 27.7272 104.799 27.979 104.299 28.1726C103.777 28.3722 103.222 28.4722 102.664 28.4674C101.136 28.4674 99.7289 28.1814 98.4419 27.6079C97.1873 27.0574 96.0579 26.2575 95.1221 25.2568C94.1952 24.2624 93.4706 23.0913 92.9485 21.7427C92.4256 20.3948 92.1646 18.9458 92.1646 17.3948C92.1646 15.8328 92.4256 14.3808 92.9485 13.0388C93.4706 11.6968 94.1952 10.5278 95.1221 9.53344C96.0568 8.53372 97.1867 7.73651 98.4419 7.19117C99.7289 6.62357 101.136 6.33977 102.664 6.33977C103.282 6.33977 103.847 6.42997 104.358 6.60964C104.851 6.78052 105.321 7.0126 105.756 7.30044C106.178 7.58131 106.565 7.89884 106.919 8.25231C107.273 8.60651 107.607 8.95191 107.922 9.28924V1.58704C107.922 1.22771 108.032 0.924841 108.25 0.677707C108.47 0.429841 108.798 0.306641 109.237 0.306641H113.028C113.175 0.306641 113.329 0.337441 113.491 0.399041C113.654 0.461374 113.803 0.547907 113.939 0.660841C114.073 0.773041 114.182 0.907974 114.267 1.06491C114.351 1.22257 114.393 1.39637 114.393 1.58704V26.7822C114.393 27.6475 113.939 28.0802 113.028 28.0802H109.725C109.501 28.0802 109.326 28.0508 109.203 27.9951C109.08 27.9402 108.973 27.8564 108.89 27.7509C108.797 27.6272 108.72 27.4913 108.663 27.3468C108.584 27.1566 108.5 26.9683 108.411 26.7822L107.922 25.4673ZM98.2314 17.3948C98.2258 18.1035 98.3427 18.8078 98.5768 19.4767C98.8071 20.122 99.1356 20.6816 99.5632 21.1531C99.9947 21.6284 100.519 22.0098 101.105 22.2736C101.706 22.5494 102.372 22.6865 103.102 22.6865C103.821 22.6865 104.498 22.5574 105.133 22.2993C105.75 22.0522 106.313 21.6887 106.792 21.2286C107.269 20.7679 107.655 20.2222 107.931 19.6197C108.217 19.0015 108.377 18.3386 108.411 17.6309V17.3948C108.413 16.6895 108.276 15.9908 108.006 15.3392C107.745 14.7004 107.365 14.1171 106.886 13.6203C106.405 13.1241 105.833 12.7263 105.2 12.4492C104.539 12.1595 103.824 12.0131 103.102 12.0194C102.372 12.0194 101.706 12.1624 101.105 12.4492C100.503 12.7352 99.99 13.126 99.5632 13.6203C99.1294 14.1263 98.7948 14.7094 98.5768 15.3392C98.3453 15.9997 98.2288 16.6949 98.2322 17.3948H98.2314ZM133.959 25.4673C133.656 25.7709 133.321 26.0965 132.956 26.4448C132.591 26.7932 132.189 27.1195 131.751 27.4224C131.311 27.7272 130.836 27.979 130.336 28.1726C129.814 28.3722 129.259 28.4722 128.701 28.4674C127.173 28.4674 125.766 28.1814 124.48 27.6079C123.225 27.0575 122.095 26.2576 121.159 25.2568C120.233 24.2624 119.508 23.0913 118.986 21.7427C118.463 20.3948 118.202 18.9458 118.202 17.3948C118.202 15.8328 118.463 14.3808 118.986 13.0388C119.508 11.6968 120.232 10.5278 121.159 9.53344C122.094 8.53364 123.224 7.73642 124.48 7.19117C125.766 6.62357 127.173 6.33977 128.701 6.33977C129.319 6.33977 129.884 6.42997 130.395 6.60964C130.888 6.78052 131.358 7.0126 131.793 7.30044C132.215 7.58131 132.602 7.89884 132.956 8.25231C133.31 8.60651 133.644 8.95191 133.959 9.28924V1.58704C133.959 1.22771 134.069 0.924841 134.287 0.677707C134.507 0.429841 134.835 0.306641 135.274 0.306641H139.065C139.212 0.306641 139.366 0.337441 139.528 0.399041C139.692 0.461374 139.841 0.547907 139.976 0.660841C140.11 0.773041 140.22 0.907974 140.304 1.06491C140.388 1.22257 140.43 1.39637 140.43 1.58704V26.7822C140.43 27.6475 139.976 28.0802 139.065 28.0802H135.762C135.538 28.0802 135.363 28.0508 135.24 27.9951C135.118 27.9401 135.011 27.8563 134.928 27.7509C134.834 27.6272 134.758 27.4913 134.701 27.3468C134.621 27.1566 134.537 26.9683 134.448 26.7822L133.959 25.4673H133.959ZM124.268 17.3948C124.263 18.1035 124.38 18.8078 124.614 19.4767C124.845 20.122 125.173 20.6816 125.6 21.1531C126.032 21.6284 126.557 22.0099 127.142 22.2736C127.744 22.5494 128.409 22.6865 129.139 22.6865C129.858 22.6865 130.535 22.5574 131.17 22.2993C131.787 22.0523 132.351 21.6888 132.83 21.2286C133.306 20.7677 133.691 20.2221 133.967 19.6197C134.254 19.0015 134.414 18.3386 134.448 17.6309V17.3948C134.45 16.6895 134.313 15.9908 134.043 15.3392C133.782 14.7004 133.402 14.1171 132.923 13.6203C132.442 13.1241 131.87 12.7263 131.237 12.4492C130.576 12.1595 129.861 12.0131 129.139 12.0194C128.409 12.0194 127.743 12.1624 127.142 12.4492C126.541 12.7352 126.027 13.126 125.6 13.6203C125.166 14.1263 124.832 14.7094 124.614 15.3392C124.382 15.9997 124.266 16.6949 124.269 17.3948H124.268ZM144.914 1.60391C144.914 1.24457 145.003 0.941707 145.183 0.694574C145.364 0.446707 145.672 0.323507 146.11 0.323507H150.239C150.352 0.323507 150.47 0.354307 150.593 0.415907C150.722 0.482338 150.839 0.570943 150.938 0.677707C151.045 0.789907 151.135 0.924841 151.208 1.08177C151.282 1.23944 151.318 1.41324 151.318 1.60391V26.7822C151.318 27.209 151.197 27.5316 150.955 27.7509C150.714 27.9702 150.402 28.0794 150.02 28.0794H146.11C145.672 28.0794 145.364 27.9694 145.183 27.7509C145.003 27.5316 144.914 27.2082 144.914 26.7822V1.60391ZM173.294 25.5179C172.317 26.4206 171.187 27.1424 169.957 27.6497C168.712 28.1629 167.377 28.4236 166.03 28.4168C164.49 28.4168 163.036 28.1359 161.666 27.5734C160.326 27.032 159.102 26.24 158.059 25.24C157.02 24.2381 156.185 23.0448 155.599 21.7258C154.991 20.378 154.689 18.912 154.689 17.3273C154.689 16.3388 154.809 15.381 155.051 14.4541C155.285 13.5472 155.63 12.6727 156.079 11.8508C156.523 11.0418 157.066 10.2916 157.697 9.61777C158.325 8.94284 159.043 8.35599 159.829 7.87317C160.628 7.38415 161.49 7.00434 162.39 6.74384C163.337 6.4707 164.319 6.33463 165.305 6.33977C166.238 6.33977 167.142 6.46371 168.018 6.71084C168.895 6.95797 169.718 7.30631 170.488 7.75511C171.258 8.20464 171.962 8.74437 172.602 9.37357C173.234 9.99229 173.789 10.6855 174.254 11.4379C174.715 12.1849 175.075 12.9895 175.325 13.8308C175.577 14.6792 175.704 15.5526 175.704 16.451C175.704 17.0354 175.695 17.5128 175.678 17.8839C175.661 18.2542 175.574 18.5498 175.417 18.7683C175.259 18.9883 174.999 19.1394 174.633 19.223C174.268 19.308 173.731 19.3498 173.024 19.3498H160.89C161.003 20.0685 161.23 20.6698 161.572 21.1538C161.89 21.612 162.293 22.0038 162.76 22.3074C163.21 22.5941 163.687 22.7987 164.193 22.9234C164.662 23.042 165.142 23.104 165.626 23.1082C166.03 23.1082 166.445 23.0656 166.872 22.982C167.293 22.8995 167.707 22.7868 168.112 22.6447C168.49 22.5132 168.856 22.3496 169.206 22.1556C169.538 21.9708 169.805 21.7764 170.007 21.5748C170.187 21.4281 170.342 21.3188 170.471 21.2455C170.6 21.1722 170.738 21.1362 170.883 21.1362C171.03 21.1362 171.178 21.1876 171.331 21.288C171.516 21.4172 171.687 21.5638 171.844 21.7258L173.631 23.7484C173.754 23.895 173.833 24.027 173.867 24.1444C173.9 24.2624 173.917 24.3834 173.917 24.5066C173.917 24.7318 173.855 24.9254 173.732 25.0882C173.607 25.2519 173.46 25.3967 173.293 25.5179H173.294ZM165.188 11.4797C164.749 11.4797 164.325 11.567 163.915 11.7408C163.499 11.9184 163.11 12.1539 162.76 12.4404C162.401 12.7322 162.078 13.0637 161.792 13.4348C161.518 13.7846 161.283 14.1633 161.092 14.5641H169.704C169.478 14.1416 169.222 13.736 168.937 13.3504C168.667 12.9847 168.349 12.656 167.993 12.3729C167.629 12.0865 167.219 11.8643 166.78 11.7158C166.325 11.5582 165.794 11.4797 165.188 11.4797Z" fill="#FEFEFE"/>
</g>
<defs>
<clipPath id="clip0_2_969">
<rect width="176" height="28.6" fill="white" transform="translate(0 0.131226)"/>
</clipPath>
</defs>
</svg>
