<svg width="21" height="21" viewBox="0 0 21 21" fill="none" xmlns="http://www.w3.org/2000/svg">
<g clip-path="url(#clip0_2_954)">
<path d="M10.5001 0C7.69286 0 7.34239 0.0129167 6.24017 0.062C5.13967 0.113667 4.3905 0.28675 3.73175 0.5425C3.05233 0.806 2.47539 1.15992 1.90103 1.73428C1.32666 2.30864 0.971887 2.88472 0.709248 3.565C0.453498 4.22375 0.279554 4.97292 0.228748 6.07342C0.177081 7.17564 0.166748 7.52611 0.166748 10.3333C0.166748 13.1406 0.179665 13.491 0.228748 14.5933C0.280415 15.6929 0.453498 16.4429 0.709248 17.1017C0.972748 17.7802 1.32666 18.358 1.90103 18.9324C2.47539 19.5059 3.05147 19.8615 3.73175 20.1242C4.39136 20.3791 5.14053 20.5539 6.24017 20.6047C7.34239 20.6563 7.69286 20.6667 10.5001 20.6667C13.3073 20.6667 13.6578 20.6538 14.76 20.6047C15.8596 20.553 16.6097 20.3791 17.2684 20.1242C17.947 19.8607 18.5248 19.5059 19.0991 18.9324C19.6726 18.358 20.0283 17.7828 20.2909 17.1017C20.5458 16.4429 20.7206 15.6929 20.7714 14.5933C20.8231 13.491 20.8334 13.1406 20.8334 10.3333C20.8334 7.52611 20.8205 7.17564 20.7714 6.07342C20.7197 4.97378 20.5458 4.22289 20.2909 3.565C20.0274 2.88558 19.6726 2.30864 19.0991 1.73428C18.5248 1.15992 17.9496 0.805139 17.2684 0.5425C16.6097 0.28675 15.8596 0.112806 14.76 0.062C13.6578 0.0103333 13.3073 0 10.5001 0ZM10.5001 1.86C13.2582 1.86 13.5872 1.87378 14.6765 1.92114C15.684 1.9685 16.2308 2.13556 16.5942 2.2785C17.0781 2.46536 17.4208 2.68925 17.7842 3.05006C18.145 3.41172 18.3689 3.75531 18.5558 4.23925C18.697 4.60264 18.8658 5.14945 18.9114 6.15694C18.9605 7.24711 18.9717 7.57433 18.9717 10.3333C18.9717 13.0923 18.9588 13.4204 18.908 14.5097C18.8554 15.5172 18.6875 16.064 18.5454 16.4274C18.3526 16.9114 18.133 17.2541 17.7713 17.6175C17.4105 17.9783 17.0617 18.2022 16.583 18.389C16.2213 18.5303 15.6659 18.699 14.6584 18.7447C13.5613 18.7938 13.2384 18.8049 10.4742 18.8049C7.70922 18.8049 7.3863 18.792 6.29011 18.7412C5.28175 18.6887 4.72633 18.5208 4.36467 18.3787C3.87469 18.1858 3.538 17.9662 3.17719 17.6046C2.81466 17.2438 2.58303 16.895 2.40219 16.4162C2.26011 16.0546 2.09305 15.4991 2.04053 14.4916C2.00178 13.4066 1.988 13.0717 1.988 10.3204C1.988 7.56831 2.00178 7.23247 2.04053 6.13456C2.09305 5.12706 2.26011 4.5725 2.40219 4.21083C2.58303 3.72 2.81466 3.38417 3.17719 3.02164C3.538 2.66083 3.87469 2.42833 4.36467 2.24836C4.72633 2.10542 5.26969 1.9375 6.27719 1.88583C7.37511 1.84708 7.69803 1.83417 10.4613 1.83417L10.5001 1.86ZM10.5001 5.02717C7.568 5.02717 5.19391 7.40383 5.19391 10.3333C5.19391 13.2654 7.57058 15.6395 10.5001 15.6395C13.4322 15.6395 15.8062 13.2628 15.8062 10.3333C15.8062 7.40125 13.4296 5.02717 10.5001 5.02717ZM10.5001 13.7778C8.59703 13.7778 7.05564 12.2364 7.05564 10.3333C7.05564 8.43028 8.59703 6.88889 10.5001 6.88889C12.4031 6.88889 13.9445 8.43028 13.9445 10.3333C13.9445 12.2364 12.4031 13.7778 10.5001 13.7778ZM17.2564 4.81792C17.2564 5.5025 16.7001 6.05792 16.0164 6.05792C15.3318 6.05792 14.7764 5.50164 14.7764 4.81792C14.7764 4.13419 15.3326 3.57878 16.0164 3.57878C16.6992 3.57792 17.2564 4.13419 17.2564 4.81792Z" fill="#FEFEFE"/>
</g>
<defs>
<clipPath id="clip0_2_954">
<rect width="20.6667" height="20.6667" fill="white" transform="translate(0.166748)"/>
</clipPath>
</defs>
</svg>
